<?xml version="1.0" encoding="UTF-8" standalone="no"?>
<svg
   fill="#000000"
   viewBox="0 0 24 24"
   version="1.1"
   id="svg2"
   sodipodi:docname="HarborIconWhite.svg"
   inkscape:version="1.4 (86a8ad7, 2024-10-11)"
   xml:space="preserve"
   xmlns:inkscape="http://www.inkscape.org/namespaces/inkscape"
   xmlns:sodipodi="http://sodipodi.sourceforge.net/DTD/sodipodi-0.dtd"
   xmlns="http://www.w3.org/2000/svg"
   xmlns:svg="http://www.w3.org/2000/svg"><defs
     id="defs2" /><sodipodi:namedview
     id="namedview2"
     pagecolor="#ffffff"
     bordercolor="#000000"
     borderopacity="0.25"
     inkscape:showpageshadow="2"
     inkscape:pageopacity="0.0"
     inkscape:pagecheckerboard="0"
     inkscape:deskcolor="#d1d1d1"
     inkscape:zoom="21.655145"
     inkscape:cx="25.236497"
     inkscape:cy="13.230112"
     inkscape:window-width="1920"
     inkscape:window-height="1009"
     inkscape:window-x="-8"
     inkscape:window-y="-8"
     inkscape:window-maximized="1"
     inkscape:current-layer="svg2"
     showgrid="false" /><g
     id="g192"
     style="stroke:#ffffff;stroke-opacity:1"><circle
       style="fill:none;fill-opacity:1;stroke:#ffffff;stroke-width:3.0454;stroke-dasharray:none;stroke-opacity:1"
       id="path4"
       cx="11.966508"
       cy="12.021564"
       r="8.4847956" /><path
       style="fill:none;fill-opacity:1;stroke:#ffffff;stroke-width:1.84844;stroke-dasharray:none;stroke-opacity:1"
       d="m 4.7390326,15.025964 c 0.5776448,-0.559875 1.9669668,-1.753403 2.404746,-1.97707 1.8294429,-0.934687 3.0967014,-0.440534 4.3295284,1.045368 2.699475,3.468776 5.816798,1.645915 8.371339,-1.500364"
       id="path5"
       sodipodi:nodetypes="cscc" /></g><g
     id="g194"
     transform="matrix(0.91188446,0,0,0.91188446,0.30189557,2.6517364)"><path
       style="fill:#0100c4;fill-opacity:1;stroke:#0100c4;stroke-width:0.788;stroke-dasharray:none;stroke-opacity:1"
       d="M 17.078819,22.31083 C 15.456906,22.181889 14.192559,21.810465 13.036923,21.123453 12.47185,20.787524 11.677351,19.993272 11.462235,19.549254 11.253185,19.11776 11.140821,18.618853 11.15914,18.203482 l 0.01475,-0.334514 2.483034,-0.01304 c 1.700909,-0.0089 2.503838,-0.0303 2.549077,-0.06785 0.04755,-0.03946 0.06994,-0.253965 0.07996,-0.765906 l 0.01392,-0.711096 h 1.532768 1.532769 l 0.02513,0.753821 0.02513,0.753821 2.524458,0.01303 2.524458,0.01302 0.03217,0.128163 c 0.04324,0.172274 -0.01891,0.767811 -0.11387,1.09127 -0.135586,0.461815 -0.3773,0.848656 -0.795855,1.273693 -0.88294,0.896614 -2.180302,1.522245 -3.737534,1.802363 -0.609405,0.109621 -1.863584,0.238272 -2.139967,0.219513 -0.05667,-0.0039 -0.340481,-0.02587 -0.630702,-0.04894 z m 1.583024,-0.825852 c 1.080608,-0.06589 2.046639,-0.312184 2.99715,-0.764137 0.90148,-0.428641 1.55335,-1.002111 1.858806,-1.635249 0.218147,-0.452164 0.769276,-0.410835 -5.671739,-0.425325 -6.374286,-0.01434 -5.869351,-0.04546 -5.737923,0.353626 0.103245,0.313506 0.481203,0.776284 0.903851,1.106691 0.712514,0.557011 1.996862,1.087594 3.061738,1.26485 0.545792,0.09085 1.586908,0.172108 1.884551,0.147086 0.11056,-0.0093 0.427165,-0.03069 0.703566,-0.04754 z m 0.297938,-3.368326 c 0.06352,-0.06352 0.07897,-0.204129 0.07897,-0.718642 0,-0.430515 -0.01972,-0.659389 -0.06031,-0.699976 -0.08543,-0.08543 -2.206182,-0.08543 -2.291615,0 -0.04083,0.04083 -0.06031,0.275288 -0.06031,0.726196 0,0.581165 0.01119,0.672408 0.08795,0.717115 0.05179,0.03016 0.515216,0.05185 1.127141,0.05275 0.87911,0.0013 1.051361,-0.01064 1.118167,-0.07744 z"
       id="path13" /><path
       style="fill:#6160ff;fill-opacity:1;stroke:#0100c4;stroke-width:0.0184791;stroke-dasharray:none;stroke-opacity:1"
       d="m 17.451464,21.135603 c -0.428912,-0.01934 -1.005218,-0.0778 -1.357421,-0.137706 -0.849529,-0.144496 -1.919125,-0.54717 -2.602428,-0.979745 -0.338209,-0.214108 -0.738931,-0.580791 -0.916069,-0.838253 l -0.06739,-0.09794 0.12208,-0.01467 c 0.158887,-0.01909 8.820742,-0.01458 9.729078,0.005 0.382655,0.0083 0.702894,0.02223 0.711645,0.03099 0.02423,0.02427 -0.105626,0.199552 -0.284974,0.384661 -0.496522,0.512472 -1.246404,0.934542 -2.220642,1.249881 -0.650063,0.210411 -1.173191,0.304529 -2.024329,0.364207 -0.727662,0.05101 -0.712044,0.05054 -1.089553,0.03352 z"
       id="path193" /><path
       style="fill:#6160ff;fill-opacity:1;stroke:#0100c4;stroke-width:0.019253;stroke-dasharray:none;stroke-opacity:1"
       d="m 17.169113,17.80456 -0.189353,-0.0084 v -0.373929 -0.373947 l 0.274868,-0.01584 c 0.350386,-0.02019 0.785735,-0.02019 1.13612,0 l 0.274869,0.01584 v 0.371778 0.371776 l -0.09162,0.01514 c -0.0912,0.01507 -1.043995,0.01339 -1.40488,-0.0025 z"
       id="path194" /></g></svg>
