<?xml version="1.0" encoding="UTF-8" standalone="no"?>
<svg
   fill="#000000"
   viewBox="0 0 24 24"
   version="1.1"
   id="svg2"
   sodipodi:docname="ShipIconWhite.svg"
   inkscape:version="1.4 (86a8ad7, 2024-10-11)"
   xml:space="preserve"
   xmlns:inkscape="http://www.inkscape.org/namespaces/inkscape"
   xmlns:sodipodi="http://sodipodi.sourceforge.net/DTD/sodipodi-0.dtd"
   xmlns="http://www.w3.org/2000/svg"
   xmlns:svg="http://www.w3.org/2000/svg"><defs
     id="defs2" /><sodipodi:namedview
     id="namedview2"
     pagecolor="#ffffff"
     bordercolor="#000000"
     borderopacity="0.25"
     inkscape:showpageshadow="2"
     inkscape:pageopacity="0.0"
     inkscape:pagecheckerboard="0"
     inkscape:deskcolor="#d1d1d1"
     inkscape:zoom="10.827573"
     inkscape:cx="24.336018"
     inkscape:cy="4.8487322"
     inkscape:window-width="1920"
     inkscape:window-height="1009"
     inkscape:window-x="-8"
     inkscape:window-y="-8"
     inkscape:window-maximized="1"
     inkscape:current-layer="svg2"
     showgrid="false" /><g
     id="g194"
     transform="matrix(0.91188446,0,0,0.91188446,0.30189557,2.6517364)"><path
       style="fill:#ffffff;fill-opacity:1;stroke:#ffffff;stroke-width:1.39;stroke-dasharray:none;stroke-opacity:1"
       d="M 11.802858,16.298277 C 8.9418599,16.070829 6.7115965,15.415651 4.6730952,14.203786 3.6763263,13.611218 2.274858,12.210186 1.895401,11.426954 1.5266441,10.665814 1.328438,9.7857602 1.360752,9.0530592 L 1.3867705,8.4629891 5.766755,8.4399902 c 3.0003439,-0.015702 4.416682,-0.053451 4.496482,-0.1196883 0.08388,-0.069606 0.123372,-0.4479854 0.141047,-1.3510313 l 0.02455,-1.2543483 h 2.703749 2.703751 l 0.04433,1.3297137 0.04433,1.3297138 4.453054,0.022983 4.453055,0.022968 0.05675,0.2260745 c 0.07627,0.3038849 -0.03336,1.3543907 -0.200863,1.9249617 -0.239169,0.814625 -0.665544,1.496999 -1.40386,2.246749 -1.557475,1.581595 -3.845976,2.685187 -6.592879,3.179305 -1.074968,0.193368 -3.287297,0.420303 -3.774826,0.387213 -0.09996,-0.0069 -0.600597,-0.04564 -1.112536,-0.08633 z m 2.792398,-1.456774 c 1.906155,-0.116228 3.610199,-0.550682 5.286868,-1.347911 1.590178,-0.756108 2.740054,-1.767688 3.278868,-2.884521 C 23.545795,9.8114692 24.517968,9.8843722 13.156244,9.8588122 1.9122274,9.8335222 2.802915,9.7786222 3.0347493,10.482596 c 0.1821206,0.553014 0.8488252,1.369337 1.5943615,1.952164 1.2568495,0.982548 3.5223941,1.918477 5.4007982,2.23115 0.962758,0.160257 2.79925,0.303593 3.324281,0.259455 0.195024,-0.01641 0.753505,-0.05413 1.241066,-0.08386 z m 0.525552,-5.9416078 c 0.112047,-0.1120474 0.139301,-0.360077 0.139301,-1.2676593 0,-0.7594135 -0.03479,-1.1631392 -0.106385,-1.2347333 -0.150696,-0.1506954 -3.891627,-0.1506954 -4.042328,0 -0.07202,0.072023 -0.106385,0.4855984 -0.106385,1.2809841 0,1.0251547 0.01974,1.186104 0.155141,1.2649655 0.09136,0.0532 0.908822,0.09146 1.988237,0.09305 1.550719,0.0023 1.854563,-0.01877 1.972407,-0.136601 z"
       id="path13" /></g></svg>
